<?xml version="1.0" standalone="no"?><!DOCTYPE svg PUBLIC "-//W3C//DTD SVG 1.1//EN" "http://www.w3.org/Graphics/SVG/1.1/DTD/svg11.dtd"><svg class="icon" width="200px" height="200.00px" viewBox="0 0 1024 1024" version="1.1" xmlns="http://www.w3.org/2000/svg"><path fill="#8a8a8a" d="M554.4 129.165l322 201.337a80.042 80.042 0 0 1 37.6 67.869v428.595C914 871.167 878.183 907 834 907H190c-44.183 0-80-35.833-80-80.034V398.37a80.042 80.042 0 0 1 37.6-67.869l322-201.337c25.942-16.22 58.858-16.22 84.8 0z m-56.18 45.812l-322 201.337A26.014 26.014 0 0 0 164 398.37v428.595c0 14.365 11.64 26.01 26 26.01h644c14.36 0 26-11.645 26-26.01V398.37a26.014 26.014 0 0 0-12.22-22.057l-322-201.337a25.99 25.99 0 0 0-27.56 0zM631 725c14.912 0 27 12.088 27 27s-12.088 27-27 27H393c-14.912 0-27-12.088-27-27s12.088-27 27-27h238z"  /></svg>