<?xml version="1.0" standalone="no"?><!DOCTYPE svg PUBLIC "-//W3C//DTD SVG 1.1//EN" "http://www.w3.org/Graphics/SVG/1.1/DTD/svg11.dtd"><svg class="icon" width="200px" height="200.00px" viewBox="0 0 1024 1024" version="1.1" xmlns="http://www.w3.org/2000/svg"><path fill="#8a8a8a" d="M606.3 435.2c-52.1 51.3-136.5 51.3-188.6 0-8.7-8.5-22.8-8.5-31.4 0-8.7 8.5-8.7 22.4 0 30.9 69.5 68.4 182.1 68.4 251.5 0 8.7-8.5 8.7-22.4 0-30.9s-22.8-8.5-31.5 0zM628.4 600.9C716.3 557.8 777 467.7 777 363.1c0-146.3-118.6-264.9-264.8-264.9-146.3 0-264.8 118.6-264.8 264.9 0 104.7 60.8 194.9 148.9 237.9-136.2 41.7-241.1 154.7-271.5 295.5-1.3 2.9-2.1 6.1-2.1 9.4 0 12.4 10 22.4 22.4 22.4 9.4 0 17.5-5.8 20.8-14 0.1 0 0.3-0.7 0.4-1.1 0.6-1.7 1-3.6 1.1-5.5C201.1 748 342.7 628.2 512.5 628.2c172.2 0 315.4 123.2 346.5 286.1 0 0 0.1 0 0.4-0.1 3.3 8.3 11.3 14.1 20.8 14.1 12.4 0 22.4-10 22.4-22.4 0-3.6-0.8-6.9-2.3-9.9-30.6-140.7-135.6-253.6-271.9-295.1z m-116-17.2c-121.8 0-220.6-98.8-220.6-220.6s98.8-220.6 220.6-220.6c121.9 0 220.6 98.8 220.6 220.6s-98.8 220.6-220.6 220.6z" /></svg>