<?xml version="1.0" standalone="no"?><!DOCTYPE svg PUBLIC "-//W3C//DTD SVG 1.1//EN" "http://www.w3.org/Graphics/SVG/1.1/DTD/svg11.dtd"><svg class="icon" width="200px" height="200.00px" viewBox="0 0 1024 1024" version="1.1" xmlns="http://www.w3.org/2000/svg"><path d="M0 0h1024v1024H0z" fill="#FFFFFF" fill-opacity=".01" /><path d="M332.8 561.066667l-89.6 64L160 746.666667l-42.666667 106.666666v66.133334l369.066667 19.2 422.4-14.933334-19.2-125.866666-149.333333-211.2-74.666667-21.333334-134.4 117.333334-46.933333 44.8-19.2-46.933334-125.866667-115.2" fill="#0063FF" /><path d="M512 277.333333m-192 0a192 192 0 1 0 384 0 192 192 0 1 0-384 0Z" fill="#0063FF" /><path d="M512 490.666667c-117.333333 0-213.333333-96-213.333333-213.333334S394.666667 64 512 64s213.333333 96 213.333333 213.333333-96 213.333333-213.333333 213.333334z m0-384c-93.866667 0-170.666667 76.8-170.666667 170.666666s76.8 170.666667 170.666667 170.666667 170.666667-76.8 170.666667-170.666667-76.8-170.666667-170.666667-170.666666zM938.666667 938.666667h-42.666667c0-160-130.133333-337.066667-213.333333-360.533334l-153.6 170.666667c-4.266667 4.266667-10.666667 6.4-17.066667 6.4-6.4 0-12.8-2.133333-14.933333-8.533333-49.066667-57.6-125.866667-138.666667-151.466667-168.533334C238.933333 622.933333 128 778.666667 128 938.666667H85.333333c0-187.733333 136.533333-364.8 258.133334-405.333334 8.533333-2.133333 17.066667 0 21.333333 6.4 0 0 87.466667 91.733333 147.2 162.133334l145.066667-162.133334c4.266667-4.266667 12.8-8.533333 19.2-6.4 110.933333 14.933333 262.4 221.866667 262.4 405.333334z" fill="#4A4A4A" /><path d="M21.333333 917.333333h981.333334v42.666667H21.333333z" fill="#4A4A4A" /><path d="M635.733333 283.733333c-6.4 0-10.666667-4.266667-10.666666-10.666666 0-55.466667-46.933333-102.4-102.4-102.4-6.4 0-10.666667-4.266667-10.666667-10.666667s4.266667-10.666667 10.666667-10.666667c68.266667 0 123.733333 55.466667 123.733333 123.733334 0 6.4-4.266667 10.666667-10.666667 10.666666z" fill="#FFFFFF" /></svg>