<?xml version="1.0" standalone="no"?><!DOCTYPE svg PUBLIC "-//W3C//DTD SVG 1.1//EN" "http://www.w3.org/Graphics/SVG/1.1/DTD/svg11.dtd"><svg class="icon" width="200px" height="200.00px" viewBox="0 0 1024 1024" version="1.1" xmlns="http://www.w3.org/2000/svg"><path fill="#8a8a8a" d="M922.2144 205.824c-16.1792-18.2272-38.2976-28.2624-62.464-28.2624h-14.9504c-2.048-0.2048-4.096-0.2048-6.144-0.2048H263.5776c-0.8192 0-1.8432 0-2.6624 0.2048l-1.2288-7.5776c-5.7344-45.4656-36.2496-81.1008-81.92-81.1008H139.8784c-19.2512 0-34.816 15.5648-34.816 34.816s15.5648 34.816 34.816 34.816h37.6832c10.4448 0 21.0944 10.24 22.528 21.504l6.5536 37.2736 21.2992 125.952L276.6848 692.224c1.2288 9.8304 3.8912 19.456 7.9872 28.4672 5.7344 14.1312 15.1552 26.2144 26.8288 35.2256 14.9504 12.4928 33.3824 20.0704 52.8384 20.0704h465.7152c2.4576 0 4.9152-0.2048 7.168-0.6144h13.5168c19.2512 0 34.816-10.8544 34.816-29.9008 0-19.2512-15.5648-30.1056-34.816-30.1056H364.7488c-10.0352 0-24.9856-14.5408-26.2144-25.3952l-2.6624-18.6368 1.2288-4.7104 501.76-37.888s18.8416-2.048 34.4064-19.8656c16.7936-14.9504 22.7328-35.0208 25.3952-56.5248l46.6944-266.6496v-0.2048c3.4816-29.9008-4.9152-58.9824-23.1424-79.6672zM372.3264 797.9008c-32.768 0-59.5968 26.8288-59.5968 59.5968 0 32.9728 26.8288 59.5968 59.5968 59.5968 32.9728 0 59.5968-26.8288 59.5968-59.5968 0.2048-32.9728-26.624-59.5968-59.5968-59.5968zM786.0224 798.72c-32.3584 0-58.7776 26.4192-58.7776 58.7776 0 32.3584 26.4192 58.7776 58.7776 58.7776 32.5632 0 58.7776-26.4192 58.7776-58.7776 0.2048-32.5632-26.2144-58.7776-58.7776-58.7776z"  /></svg>