<?xml version="1.0" standalone="no"?><!DOCTYPE svg PUBLIC "-//W3C//DTD SVG 1.1//EN" "http://www.w3.org/Graphics/SVG/1.1/DTD/svg11.dtd"><svg class="icon" width="200px" height="200.00px" viewBox="0 0 1024 1024" version="1.1" xmlns="http://www.w3.org/2000/svg"><path fill="#8a8a8a" d="M838.144 308.608c-24.832-29.5424-70.5536-30.3872-75.6992-30.3872H240.8704l-9.472-42.8288C222.976 175.36 177.7408 170.6752 164.0704 170.6752H129.1264a26.752 26.752 0 0 0 0 53.4272h34.944c7.8592 0 14.0288 9.8048 15.2576 18.8672l0.0256 0.2304 84.224 380.288c4.6336 34.9184 20.992 59.6992 48.6144 73.6256 15.744 7.936 34.5344 11.9552 55.808 11.9552h2.9952l1.4336-0.0256h416.7424a26.752 26.752 0 0 0 0-53.4528H372.1728c-33.6896 0-52.7104-13.3632-56.5248-39.7312l-0.0256-0.1792-2.4064-10.8288h432.3072l105.984-232.448 0.128-0.64c4.5312-25.8816 0-47.1296-13.4912-63.1552z m-42.4448 53.5808l-80.5632 189.312-413.7472-0.0768-48.6656-219.776h509.7216c6.4768 0 21.632 0 29.056 8.6784 4.1728 4.864 5.5808 12.2112 4.1984 21.8624z m-423.2704 392.704a83.3536 83.3536 0 1 0 0 166.7072 83.3536 83.3536 0 0 0 0-166.6816z m333.3888 0a83.3536 83.3536 0 1 0 0 166.7072 83.3536 83.3536 0 0 0 0-166.6816z" /></svg>