<?xml version="1.0" standalone="no"?><!DOCTYPE svg PUBLIC "-//W3C//DTD SVG 1.1//EN" "http://www.w3.org/Graphics/SVG/1.1/DTD/svg11.dtd"><svg class="icon" width="200px" height="200.00px" viewBox="0 0 1024 1024" version="1.1" xmlns="http://www.w3.org/2000/svg"><path fill="#e6e6e6" d="M314.131692 697.265231a19.692308 19.692308 0 0 0 19.889231 16.029538H873.156923a29.617231 29.617231 0 1 1 0 59.195077H333.981538c-39.069538 0-72.546462-28.002462-78.375384-66.284308L177.624615 196.923077c-0.866462-5.435077-6.025846-9.767385-12.445538-9.767385H118.153846a29.617231 29.617231 0 0 1 0-59.234461h47.025231c35.367385 0 65.693538 25.403077 70.971077 60.061538l2.875077 19.022769h617.038769c50.136615 0 88.064 45.292308 77.705846 93.971693l-42.141538 197.710769a77.666462 77.666462 0 0 1-64.196923 60.140308l-423.108923 66.56a29.617231 29.617231 0 1 1-9.216-58.486154l423.108923-66.56a18.432 18.432 0 0 0 15.438769-14.020923l42.180923-197.710769c2.402462-11.342769-6.813538-22.370462-19.771077-22.370462H248.083692l66.048 431.025231z m112.561231 159.704615c0 26.978462-22.488615 48.876308-50.294154 48.876308-27.726769 0-50.215385-21.897846-50.215384-48.836923 0-26.978462 22.449231-48.876308 50.215384-48.876308 27.805538 0 50.294154 21.897846 50.294154 48.836923m404.243692 0c0 26.978462-22.488615 48.876308-50.294153 48.876308-27.726769 0-50.215385-21.897846-50.215385-48.836923 0-26.978462 22.449231-48.876308 50.215385-48.876308 27.805538 0 50.294154 21.897846 50.294153 48.836923"  /></svg>