<?xml version="1.0" standalone="no"?><!DOCTYPE svg PUBLIC "-//W3C//DTD SVG 1.1//EN" "http://www.w3.org/Graphics/SVG/1.1/DTD/svg11.dtd"><svg class="icon" width="200px" height="200.00px" viewBox="0 0 1024 1024" version="1.1" xmlns="http://www.w3.org/2000/svg"><path fill="#e6e6e6" d="M640.426667 47.488A71.936 71.936 0 0 1 693.248 25.6c20.608 0 38.186667 7.253333 52.778667 21.888l30.208 30.165333c14.592 14.592 21.888 32.213333 21.888 52.821334 0 19.712-6.698667 36.693333-20.010667 50.858666H896c20.608 0 38.229333 7.253333 52.778667 21.845334 14.592 14.592 21.888 32.170667 21.888 52.821333v93.866667c0 20.608-7.253333 38.229333-21.888 52.778666A71.936 71.936 0 0 1 896 424.533333v394.666667a113.066667 113.066667 0 0 1-34.346667 82.944 113.066667 113.066667 0 0 1-82.986666 34.389333H245.333333a113.066667 113.066667 0 0 1-82.986666-34.389333A113.066667 113.066667 0 0 1 128 819.2V424.533333c-20.608 0-38.229333-7.296-52.778667-21.888A71.936 71.936 0 0 1 53.333333 349.866667V256c0-20.650667 7.253333-38.229333 21.888-52.821333A71.936 71.936 0 0 1 128 181.333333h117.674667a71.68 71.68 0 0 1-19.968-50.858666c0-20.608 7.253333-38.229333 21.888-52.821334l30.165333-30.165333A71.936 71.936 0 0 1 330.581333 25.6c20.608 0 38.186667 7.296 52.778667 21.888l120.704 120.661333c2.901333 2.901333 5.546667 5.973333 7.850667 9.088 2.304-3.157333 4.949333-6.186667 7.850666-9.088l120.661334-120.661333zM336.128 181.333333h90.581333L338.090667 92.714667a10.24 10.24 0 0 0-7.509334-3.114667 10.24 10.24 0 0 0-7.552 3.114667l-30.208 30.208a10.24 10.24 0 0 0-3.114666 7.552 10.24 10.24 0 0 0 3.114666 7.552L336.128 181.333333z m260.992 0h90.538667l43.306666-43.306666c5.034667-5.034667 5.034667-10.069333 0-15.104l-30.208-30.208a10.24 10.24 0 0 0-7.509333-3.114667 10.282667 10.282667 0 0 0-7.552 3.114667L597.077333 181.333333zM896 360.533333c7.125333 0 10.666667-3.541333 10.666667-10.666666V256c0-7.125333-3.541333-10.666667-10.666667-10.666667H128c-7.125333 0-10.666667 3.541333-10.666667 10.666667v93.866667c0 7.125333 3.541333 10.666667 10.666667 10.666666h768zM192 424.533333v394.666667c0 14.72 5.205333 27.306667 15.616 37.717333s22.997333 15.616 37.717333 15.616h533.333334c14.72 0 27.306667-5.205333 37.717333-15.616s15.616-22.997333 15.616-37.717333V424.533333h-640z"  /></svg>