<?xml version="1.0" standalone="no"?><!DOCTYPE svg PUBLIC "-//W3C//DTD SVG 1.1//EN" "http://www.w3.org/Graphics/SVG/1.1/DTD/svg11.dtd"><svg class="icon" width="200px" height="200.00px" viewBox="0 0 1024 1024" version="1.1" xmlns="http://www.w3.org/2000/svg"><path fill="#1296db" d="M204.8 153.6a51.2 51.2 0 0 0-51.2 51.2v128a51.2 51.2 0 0 0 51.2 51.2h128a51.2 51.2 0 0 0 51.2-51.2V204.8a51.2 51.2 0 0 0-51.2-51.2H204.8z m0-102.4h128a153.6 153.6 0 0 1 153.6 153.6v128a153.6 153.6 0 0 1-153.6 153.6H204.8a153.6 153.6 0 0 1-153.6-153.6V204.8a153.6 153.6 0 0 1 153.6-153.6z m486.4 102.4a51.2 51.2 0 0 0-51.2 51.2v128a51.2 51.2 0 0 0 51.2 51.2H819.2a51.2 51.2 0 0 0 51.2-51.2V204.8a51.2 51.2 0 0 0-51.2-51.2h-128z m0-102.4H819.2a153.6 153.6 0 0 1 153.6 153.6v128a153.6 153.6 0 0 1-153.6 153.6h-128a153.6 153.6 0 0 1-153.6-153.6V204.8a153.6 153.6 0 0 1 153.6-153.6zM204.8 640a51.2 51.2 0 0 0-51.2 51.2V819.2a51.2 51.2 0 0 0 51.2 51.2h128a51.2 51.2 0 0 0 51.2-51.2v-128a51.2 51.2 0 0 0-51.2-51.2H204.8z m0-102.4h128a153.6 153.6 0 0 1 153.6 153.6V819.2a153.6 153.6 0 0 1-153.6 153.6H204.8a153.6 153.6 0 0 1-153.6-153.6v-128a153.6 153.6 0 0 1 153.6-153.6z m486.4 102.4a51.2 51.2 0 0 0-51.2 51.2V819.2a51.2 51.2 0 0 0 51.2 51.2H819.2a51.2 51.2 0 0 0 51.2-51.2v-128a51.2 51.2 0 0 0-51.2-51.2h-128z m0-102.4H819.2a153.6 153.6 0 0 1 153.6 153.6V819.2a153.6 153.6 0 0 1-153.6 153.6h-128a153.6 153.6 0 0 1-153.6-153.6v-128a153.6 153.6 0 0 1 153.6-153.6z"  /></svg>