<?xml version="1.0" standalone="no"?><!DOCTYPE svg PUBLIC "-//W3C//DTD SVG 1.1//EN" "http://www.w3.org/Graphics/SVG/1.1/DTD/svg11.dtd"><svg class="icon" width="200px" height="200.00px" viewBox="0 0 1024 1024" version="1.1" xmlns="http://www.w3.org/2000/svg"><path fill="#1296db" d="M228.096 791.552c-9.216-9.216-22.784-15.616-37.632-15.616-13.824 0-26.624 5.888-35.84 14.592l-1.28 0.768c-9.216 9.728-15.616 22.784-15.616 37.632 0 14.592 6.4 27.392 15.616 37.12 9.728 9.728 22.528 15.616 37.12 15.616 14.592 0 28.416-5.888 37.632-15.616 9.728-9.728 15.616-22.528 15.616-37.12 0-14.336-5.888-27.648-15.616-37.376z m-24.576 49.92h-0.512c-2.816 2.816-7.424 5.12-12.288 5.12-4.608 0-8.96-2.048-12.032-5.12-3.072-2.816-5.12-7.68-5.12-12.288 0-4.864 1.792-9.216 5.12-12.288l0.768-0.768c2.816-2.56 6.912-4.096 11.008-4.096 5.12 0 9.472 2.048 12.288 5.12 3.072 3.072 5.12 7.424 5.12 12.288 0.256 4.608-1.792 9.216-4.352 12.032z m586.752-611.84c9.472 9.728 22.784 15.36 37.632 15.36 13.824 0 26.624-5.12 36.096-14.592l1.024-0.768c9.728-9.728 15.36-22.784 15.36-37.376 0-14.592-5.632-27.904-15.36-37.376-9.728-9.728-22.784-15.616-37.12-15.616-14.592 0-28.16 5.888-37.632 15.616-9.472 9.472-15.616 22.528-15.616 37.376 0 14.592 6.144 27.904 15.616 37.376z m25.088-49.664c3.328-3.072 7.68-5.12 12.544-5.12 4.608 0 9.216 1.792 12.032 5.12 3.328 3.072 5.12 7.424 5.12 12.288 0 4.608-1.792 8.96-5.12 12.032l-0.512 0.768c-3.072 2.56-6.912 4.096-11.52 4.096-5.12 0-9.216-2.048-12.544-5.12-2.816-3.072-5.12-7.68-5.12-12.032 0-4.608 2.048-8.704 5.12-12.032z m77.824 330.752c0-105.728-43.008-202.24-112.384-271.36-69.632-69.632-165.632-112.896-271.616-112.896-105.984 0-202.24 43.264-271.36 112.896-69.632 69.12-112.64 165.632-112.64 271.36 0 105.984 43.008 202.24 112.64 271.616 69.12 69.12 165.12 112.128 271.36 112.128 105.984 0 201.984-43.008 271.616-112.128 69.376-69.632 112.384-165.632 112.384-271.616z m-384 324.864c-89.344 0-171.008-36.352-229.376-95.232-59.136-58.624-95.232-140.032-95.232-229.888 0-89.856 36.096-171.008 95.232-229.888 58.368-58.624 140.032-95.232 229.376-95.232 89.856 0 170.752 36.352 229.888 95.232 59.136 58.624 95.232 140.032 95.232 229.888 0 89.6-36.096 171.008-95.232 229.888-59.136 59.136-140.288 95.232-229.888 95.232zM719.36 300.8c-53.76-54.016-128-87.04-210.176-87.04-81.664 0-156.416 33.024-209.664 86.784v0.256h-0.512c-53.76 53.504-87.04 127.744-87.04 209.92 0 81.92 33.28 156.416 87.04 210.176h0.512c53.248 53.76 128 87.296 209.664 87.296 82.176 0 156.416-33.28 210.176-87.296h0.256c53.76-53.76 87.04-128 87.04-210.176-0.256-82.176-33.28-156.416-87.296-209.92z m-25.088 394.752v0.512c-47.104 47.104-112.64 76.8-185.088 76.8-72.448 0-137.728-29.44-184.832-76.8v-0.512c-47.36-46.848-76.8-112.64-76.8-184.832s29.44-137.728 76.8-185.088c47.104-47.616 112.64-76.544 184.832-76.544 72.448 0 137.984 28.928 185.088 76.544 47.616 47.36 77.056 112.896 77.056 185.088s-29.44 137.984-77.056 184.832z m-185.088-340.992c-42.752 0-81.92 17.664-109.824 46.08-28.416 27.648-45.824 66.816-45.824 109.824 0 43.264 17.152 82.176 45.824 110.336 27.904 28.416 67.072 45.568 109.824 45.568 43.264 0 82.176-17.408 110.592-45.568 28.416-28.16 45.568-67.072 45.568-110.336 0-43.008-17.152-82.176-45.568-109.824-28.416-28.416-67.328-46.08-110.592-46.08z m68.608 224.768c-17.408 17.408-41.728 28.416-68.608 28.416-26.624 0-50.944-11.008-68.352-28.416-17.408-17.408-28.416-41.728-28.416-68.608s11.008-51.2 28.416-68.352c17.408-17.664 41.728-28.416 68.352-28.416 26.88 0 51.2 11.008 68.608 28.416 17.92 17.152 28.416 41.472 28.416 68.352-0.256 26.88-10.752 51.2-28.416 68.608z m-125.696 90.624c-9.728 0-17.664 7.936-17.664 17.664v43.52c0 9.728 7.936 17.664 17.664 17.664 9.728 0 17.92-7.936 17.92-17.664v-43.52c0.256-9.728-7.936-17.664-17.92-17.664z m412.928 122.112c-9.728-9.728-22.784-15.872-37.12-15.872-14.592 0-28.16 6.4-37.632 15.616-9.472 9.728-15.616 22.784-15.616 37.632 0 14.08 5.632 26.88 14.592 36.096l1.024 1.024c9.472 9.728 22.784 15.616 37.632 15.616 14.336 0 27.392-5.888 37.12-15.616 9.728-9.728 15.36-22.528 15.36-37.12 0-14.592-5.632-27.904-15.36-37.632v0.256z m-25.088 49.408c-2.816 2.816-7.424 5.12-12.032 5.12-5.12 0-9.216-2.048-12.544-5.12l-0.512-0.512c-2.816-3.072-4.352-7.424-4.352-11.776 0-4.864 2.048-9.216 5.12-12.288 3.328-2.816 7.68-5.12 12.544-5.12 4.608 0 9.216 2.048 12.032 5.12 3.328 3.072 5.12 7.424 5.12 12.288-0.256 4.864-2.048 9.472-5.376 12.288z m-273.408-171.52c-9.984 0-17.92 7.936-17.92 17.664v43.52c0 9.728 7.68 17.664 17.92 17.664 9.728 0 17.664-7.936 17.664-17.664v-43.52c0-9.728-7.936-17.664-17.664-17.664zM153.6 229.632c9.728 9.728 22.784 15.36 37.12 15.36 14.592 0 28.416-5.632 37.632-15.36 9.728-9.728 15.616-22.784 15.616-37.376 0-13.824-5.376-26.88-14.336-36.352l-1.28-1.024c-9.216-9.728-22.784-15.616-37.632-15.616-14.592 0-27.392 5.888-37.12 15.616-9.216 9.472-15.616 22.528-15.616 37.376 0 14.592 6.4 27.904 15.616 37.376z m25.088-49.664c2.816-3.072 7.424-5.12 12.032-5.12 5.12 0 9.472 1.792 12.288 5.12l0.768 0.768c2.816 3.328 4.096 7.168 4.096 11.776 0 4.608-1.792 8.96-5.12 12.032-2.816 2.816-7.424 5.12-12.288 5.12-4.608 0-8.96-2.048-12.032-4.864v-0.256c-3.072-3.072-5.12-7.68-5.12-12.032 0.256-5.12 2.304-9.216 5.376-12.544z"  /></svg>