<?xml version="1.0" standalone="no"?><!DOCTYPE svg PUBLIC "-//W3C//DTD SVG 1.1//EN" "http://www.w3.org/Graphics/SVG/1.1/DTD/svg11.dtd"><svg class="icon" width="200px" height="200.00px" viewBox="0 0 1024 1024" version="1.1" xmlns="http://www.w3.org/2000/svg"><path fill="#f4ea2a" d="M542.047 467.498V275.872c-9.817-0.914-19.303-2.053-27.414-3.303h-1.372c0 0.112-0.335 0.335-0.681 0.335-10.522 1.383-23.309 2.967-37.937 4.351v190.354H80V314.836c0-23.99 19.191-43.293 43.304-43.293h179.955c-48.336-10.176-84.555-30.84-85.816-69.023-1.361-45.01 49.251-117.67 123.395-101.112 76.454 17.138 129.922 76.342 170.95 127.043 41.251-51.639 99.718-118.118 179.497-128.628 66.724-8.457 121.788 58.155 114.702 102.14-6.048 38.494-42.958 59.515-90.043 69.58h177.578c23.988 0 43.291 19.192 43.291 43.293v152.773H542.047v-0.111zM348.96 141.397c-36.909-14.505-58.5 1.138-74.032 26.734-8.469 14.505-17.607 33.831-4.117 47.979 35.526 36.465 132.879 33.831 198.23 27.091-30.739-38.605-68.676-81.451-120.081-101.804z m403.549 74.401c25.361-32.47-24.347-100.108-77.794-75.07-51.215 23.989-87.98 63.176-119.747 101.782 27.415 2.41 55.198 2.991 82.48 1.718 33.584-1.472 95.4-3.771 115.061-28.43zM477.5 924.413H155.751c-21.703 0-39.309-17.607-39.309-39.521V498.338H477.5v426.075z m422.883-39.521c0 22.026-17.629 39.521-39.332 39.521H539.426V498.338h360.957v386.554z"  /></svg>