<?xml version="1.0" standalone="no"?><!DOCTYPE svg PUBLIC "-//W3C//DTD SVG 1.1//EN" "http://www.w3.org/Graphics/SVG/1.1/DTD/svg11.dtd"><svg class="icon" width="200px" height="200.00px" viewBox="0 0 1024 1024" version="1.1" xmlns="http://www.w3.org/2000/svg"><path d="M940.62162173 1016.7404721H83.37837827c-21.48933531 0-38.83614815-17.34681283-38.83614814-38.83614815V518.73159902h935.04499357v459.17272493c-0.12945383 21.48933531-17.47626667 38.83614815-38.96560197 38.83614815z" fill="#fbe6bc" /><path d="M461.25409975 30.94957827L49.07311408 514.71853037c-1.29453827 1.55344592-0.25890765 4.01306864 1.81235357 4.01306865h924.42977976c2.07126124 0 3.23634569-2.45962272 1.81235357-4.01306865L564.04043852 30.94957827c-26.92639605-31.58673383-75.85994272-31.58673383-102.78633877 0zM339.30859457 826.96116148L44.54223013 518.73159902h935.04499357l-295.15472592 308.35901629c-94.11293235 98.12600098-251.14042469 98.12600098-345.12390321-0.12945383z" fill="#f4b845" /><path d="M909.0348879 157.16705975H114.9651121v435.35322075l224.34348247 234.57033481c93.98347852 98.25545482 250.88151703 98.25545482 344.99444938 0.12945383l224.73184395-234.69978864V157.16705975z" fill="#FFCB21" /><path d="M219.43435061 261.89520592m-14.7577363 0a14.7577363 14.7577363 0 1 0 29.5154726 0 14.7577363 14.7577363 0 1 0-29.5154726 0Z" fill="#FFFFFF" /><path d="M804.56564939 261.89520592m-14.7577363 0a14.7577363 14.7577363 0 1 0 29.5154726 0 14.7577363 14.7577363 0 1 0-29.5154726 0Z" fill="#FFFFFF" /><path d="M310.69929876 562.61644642h391.08001185v29.90383408H310.69929876zM356.91431506 637.05239703h298.52052544v29.90383408H356.91431506z" fill="#FFE48A" /><path d="M302.02589235 787.9955595c-2.33016889-0.77672297-135.27924939 122.07495902-135.27924938 122.07495902l157.8042153-98.51436247-22.52496592-23.56059655zM721.97410765 787.9955595c2.33016889-0.77672297 135.27924939 122.07495902 135.27924938 122.07495902l-157.8042153-98.51436247 22.52496592-23.56059655z" fill="#f9af22" /><path d="M437.56404939 282.2194568h137.22105678v29.90383406h-137.22105678z" fill="#FFE48A" /><path d="M297.75391605 420.86450569h428.4921679v64.20909826h-428.4921679zM120.6610805 731.42423703c4.01306864 3.62470717 8.15559111 20.71261235 8.15559111 20.71261236s-17.34681283-2.45962272-21.35988148-6.08432989c-4.01306864-3.62470717-4.2719763-9.96794469-0.64726915-13.98101333 3.62470717-4.01306864 9.83849086-4.2719763 13.85155952-0.64726914zM150.43546075 737.89692839c-2.33016889 4.91924543-17.47626667 13.8515595-17.47626667 13.85155951s-2.71853037-17.34681283-0.38836149-22.26605827c2.33016889-4.91924543 8.15559111-7.1199605 13.20429038-4.7897916 4.78979161 2.33016889 6.99050667 8.28504494 4.66033778 13.20429036zM116.13019653 775.43853827c4.66033778-2.71853037 12.16865975-18.64135111 12.16865977-18.6413511s-17.47626667-1.16508445-22.26605827 1.68289974c-4.66033778 2.71853037-6.2137837 8.80286025-3.49525334 13.59265185 2.84798419 4.66033778 8.93231408 6.2137837 13.59265184 3.36579951zM155.87252148 747.21760395c-5.43706075 0-19.93588939 9.96794469-19.93588938 9.96794469s14.49882864 9.83849086 19.93588938 9.83849086 9.83849086-4.40143013 9.83849087-9.83849086c0.12945383-5.56651457-4.2719763-9.96794469-9.83849087-9.96794469zM125.96868741 780.09887605c-0.51781531-5.43706075 8.02613728-20.84206617 8.02613728-20.84206618s11.13302914 13.59265185 11.65084445 19.0297126-3.49525333 10.22685235-8.93231408 10.74466766c-5.43706075 0.51781531-10.22685235-3.49525333-10.74466765-8.93231408z" fill="#FFFEFA" /><path d="M699.57859555 609.09037037c-1.03563061-3.10689185-2.58907653-4.53088395-2.58907653-4.53088395s0.9061768 1.55344592 2.58907653 4.53088395z" fill="#5644E3" /><path d="M604.55948642 874.60016987c11.78029827-3.88361482 22.52496592-8.15559111 32.36345678-12.68647505l91.0060405-175.79829729c-7.24941431-36.50597925-22.26605827-66.15090569-28.35038815-77.154481 3.10689185 9.45012939 1.16508445 34.04635653-64.20909827 80.64973433-86.99297185 62.13783703-58.25422222 178.12846617-58.25422222 178.12846617 55.7945995-35.47034864 98.6438163-135.53815703 98.6438163-135.53815703-15.79336691 112.49537581-71.19960494 142.39920987-71.19960494 142.39920987z" fill="#5644E3" /><path d="M818.28775506 599.51078717c-0.12945383-3.23634569-1.16508445-5.04869925-1.16508445-5.04869927s0.51781531 1.68289975 1.16508445 5.04869927zM652.19849482 827.4789768c12.42756741-0.38836148 23.94895803-1.4239921 34.69362568-2.97743804l136.96214913-143.04647901c3.3657995-37.02379457-2.71853037-69.77561283-5.43706074-81.94427258 0.38836148 9.83849086-8.41449876 33.01072592-84.27444148 59.28985283-100.97398518 34.95253333-106.15213827 154.43841581-106.15213827 154.43841581 63.56182914-18.25298963 132.81962667-102.26852347 132.81962667-102.26852346-46.99173925 103.4336079-108.61176098 116.50844445-108.61176099 116.50844445z" fill="#FC355D" /><path d="M166.74664297 910.07051852l297.22598716-185.50733433c29.12711111-18.25298963 66.15090569-18.25298963 95.40747062 0l297.87325628 185.50733433" fill="#fbe6bc" /></svg>